<svg xmlns="http://www.w3.org/2000/svg" width="19" height="18" viewBox="0 0 19 18" fill="none">
                        <path d="M7.20269 1.8C4.22035 1.8 1.80269 4.21766 1.80269 7.2C1.80269 10.1823 4.22035 12.6 7.20269 12.6C10.185 12.6 12.6027 10.1823 12.6027 7.2C12.6027 4.21766 10.185 1.8 7.20269 1.8ZM0.00268555 7.2C0.00268555 3.22355 3.22624 0 7.20269 0C11.1791 0 14.4027 3.22355 14.4027 7.2C14.4027 8.86384 13.8383 10.3959 12.8906 11.6151L17.7391 16.4636C18.0906 16.8151 18.0906 17.3849 17.7391 17.7364C17.3876 18.0879 16.8178 18.0879 16.4663 17.7364L11.6178 12.8879C10.3985 13.8356 8.86653 14.4 7.20269 14.4C3.22624 14.4 0.00268555 11.1764 0.00268555 7.2Z" fill="#6F7F92"/>
                        </svg>