<svg xmlns="http://www.w3.org/2000/svg" width="18" height="18" viewBox="0 0 18 18" fill="currentColor"><path fill-rule="evenodd" d="M3.3352346,13.1409137 L3.33523455,13.1409138 C2.91548014,13.5733825 2.92546046,14.2645641 3.35752584,14.684707 C3.78087294,15.0963751 4.45458199,15.0962796 4.87780976,14.6844919 L9.00453522,10.5538595 L13.1373639,14.6904917 L13.1373638,14.6904917 C13.568947,15.1110906 14.2594594,15.1018597 14.6796682,14.6698737 C15.0920236,14.2459591 15.0919517,13.570408 14.6795052,13.1465834 L10.5469491,9.01016937 L14.6955806,4.85777412 L14.6955806,4.85777409 C15.1130468,4.423134 15.0994531,3.73205118 14.6652183,3.31419357 C14.2430237,2.90792372 13.5756331,2.90792372 13.1534407,3.31419361 L9.00453675,7.46620706 L4.86206292,3.31981159 L4.86206295,3.31981162 C4.436122,2.89342832 3.74549844,2.89339123 3.31951335,3.31972975 C2.89352771,3.74606833 2.89349066,4.43733659 3.31943155,4.86371935 L7.46206886,9.01011482 L3.3352346,13.1409137 Z" fill=""/></svg>