<svg xmlns="http://www.w3.org/2000/svg" width="40" height="40" viewBox="0 0 40 40" class="mt-px ml-px text-gray-700"><defs><linearGradient id="clearbit-color-a" x1="0%" x2="100%" y1="0%" y2="100%"><stop offset="0%" stop-color="#FFF" stop-opacity="0.75"></stop><stop offset="100%" stop-color="#FFF" stop-opacity="0.5"></stop></linearGradient><linearGradient id="clearbit-color-b" x1="37.5%" x2="62.5%" y1="0%" y2="100%"><stop offset="0%" stop-color="#FFF" stop-opacity="0.95"></stop><stop offset="100%" stop-color="#FFF" stop-opacity="0.9"></stop></linearGradient><filter id="ck-icon-shadow" x="-50%" y="-50%" width="200%" height="200%"><feOffset result="offOut" in="SourceGraphic" dx="0" dy="1"></feOffset><feGaussianBlur result="blurOut" in="offOut" stdDeviation="1"></feGaussianBlur><feBlend in="SourceGraphic" in2="blurOut" mode="normal"></feBlend></filter><mask id="clearbit-color-mask"><rect width="100%" height="100%" fill="#FFFFFF"></rect><path d="M27.9195733,37 L12.0804267,37 L11.4338943,36.9949826 C8.75934941,36.9515623 7.69554096,36.6271471 6.62367147,36.053905 C5.46935048,35.4365674 4.56343261,34.5306495 3.94609499,33.3763285 L3.81824005,33.1283803 C3.30403747,32.0897188 3.02217708,30.9433817 3.00125617,28.250264 L3,12.0804267 C3,8.92296455 3.32875737,7.77799245 3.94609499,6.62367147 C4.56343261,5.46935048 5.46935048,4.56343261 6.62367147,3.94609499 L6.87161969,3.81824005 C7.91028124,3.30403747 9.05661831,3.02217708 11.749736,3.00125617 L27.9195733,3 C31.0770355,3 32.2220075,3.32875737 33.3763285,3.94609499 C34.5306495,4.56343261 35.4365674,5.46935048 36.053905,6.62367147 L36.18176,6.87161969 C36.6959625,7.91028124 36.9778229,9.05661831 36.9987438,11.749736 L37,27.9195733 L36.9949826,28.5661057 C36.9515623,31.2406506 36.6271471,32.304459 36.053905,33.3763285 C35.4365674,34.5306495 34.5306495,35.4365674 33.3763285,36.053905 L33.1283803,36.18176 C32.0481723,36.7165306 30.8515024,37 27.9195733,37 Z" fill="#000"></path></mask></defs><g fill="none"><g style="mask: url(&quot;#clearbit-color-mask&quot;);"><path d="M27.9195733,37 L12.0804267,37 L11.4338943,36.9949826 C8.75934941,36.9515623 7.69554096,36.6271471 6.62367147,36.053905 C5.46935048,35.4365674 4.56343261,34.5306495 3.94609499,33.3763285 L3.81824005,33.1283803 C3.30403747,32.0897188 3.02217708,30.9433817 3.00125617,28.250264 L3,12.0804267 C3,8.92296455 3.32875737,7.77799245 3.94609499,6.62367147 C4.56343261,5.46935048 5.46935048,4.56343261 6.62367147,3.94609499 L6.87161969,3.81824005 C7.91028124,3.30403747 9.05661831,3.02217708 11.749736,3.00125617 L27.9195733,3 C31.0770355,3 32.2220075,3.32875737 33.3763285,3.94609499 C34.5306495,4.56343261 35.4365674,5.46935048 36.053905,6.62367147 L36.18176,6.87161969 C36.6959625,7.91028124 36.9778229,9.05661831 36.9987438,11.749736 L37,27.9195733 L36.9949826,28.5661057 C36.9515623,31.2406506 36.6271471,32.304459 36.053905,33.3763285 C35.4365674,34.5306495 34.5306495,35.4365674 33.3763285,36.053905 L33.1283803,36.18176 C32.0481723,36.7165306 30.8515024,37 27.9195733,37 Z" id="clearbit-color-edge" stroke-opacity="0.1" stroke="#000000" fill-opacity="0" fill="#9BADBC"></path><path d="M27.9195733,37 L12.0804267,37 L11.4338943,36.9949826 C8.75934941,36.9515623 7.69554096,36.6271471 6.62367147,36.053905 C5.46935048,35.4365674 4.56343261,34.5306495 3.94609499,33.3763285 L3.81824005,33.1283803 C3.30403747,32.0897188 3.02217708,30.9433817 3.00125617,28.250264 L3,12.0804267 C3,8.92296455 3.32875737,7.77799245 3.94609499,6.62367147 C4.56343261,5.46935048 5.46935048,4.56343261 6.62367147,3.94609499 L6.87161969,3.81824005 C7.91028124,3.30403747 9.05661831,3.02217708 11.749736,3.00125617 L27.9195733,3 C31.0770355,3 32.2220075,3.32875737 33.3763285,3.94609499 C34.5306495,4.56343261 35.4365674,5.46935048 36.053905,6.62367147 L36.18176,6.87161969 C36.6959625,7.91028124 36.9778229,9.05661831 36.9987438,11.749736 L37,27.9195733 L36.9949826,28.5661057 C36.9515623,31.2406506 36.6271471,32.304459 36.053905,33.3763285 C35.4365674,34.5306495 34.5306495,35.4365674 33.3763285,36.053905 L33.1283803,36.18176 C32.0481723,36.7165306 30.8515024,37 27.9195733,37 Z" id="clearbit-color-fx" fill-opacity="0.2" fill="#000000" filter="url(#ck-icon-shadow)"></path></g><path fill="url(#clearbit-color-a)" d="M20,3 L27.9195733,3 C31.0770355,3 32.2220075,3.32875737 33.3763285,3.94609499 C34.5306495,4.56343261 35.4365674,5.46935048 36.053905,6.62367147 C36.6712426,7.77799245 37,8.92296455 37,12.0804267 L37,20 L20,20 L20,3 Z"></path><path fill="url(#clearbit-color-b)" d="M12.0804267,3 L20,3 L20,37 L12.0804267,37 C8.92296455,37 7.77799245,36.6712426 6.62367147,36.053905 C5.46935048,35.4365674 4.56343261,34.5306495 3.94609499,33.3763285 C3.32875737,32.2220075 3,31.0770355 3,27.9195733 L3,12.0804267 C3,8.92296455 3.32875737,7.77799245 3.94609499,6.62367147 C4.56343261,5.46935048 5.46935048,4.56343261 6.62367147,3.94609499 C7.77799245,3.32875737 8.92296455,3 12.0804267,3 Z"></path><path fill="#FFF" d="M37,20 L37,27.9195733 C37,31.0770355 36.6712426,32.2220075 36.053905,33.3763285 C35.4365674,34.5306495 34.5306495,35.4365674 33.3763285,36.053905 C32.2220075,36.6712426 31.0770355,37 27.9195733,37 L20,37 L20,20 L37,20 Z" opacity="0.2"></path></g></svg>
